<?xml version="1.0" standalone="no"?><!DOCTYPE svg PUBLIC "-//W3C//DTD SVG 1.1//EN" "http://www.w3.org/Graphics/SVG/1.1/DTD/svg11.dtd"><svg t="1620113251389" class="icon" viewBox="0 0 1099 1024" version="1.1" xmlns="http://www.w3.org/2000/svg" p-id="3243" xmlns:xlink="http://www.w3.org/1999/xlink" width="214.6484375" height="200"><defs><style type="text/css"></style></defs><path d="M370.031119 158.011804H259.378903a22.80073 22.80073 0 0 0-23.89956 21.537075v612.762742l79.170727-79.225668 79.225668 79.335551V179.438996a22.80073 22.80073 0 0 0-23.89956-21.537075z m716.986801 81.148621h-0.494473a33.67915 33.67915 0 0 0-16.482455-7.526988 144.386308 144.386308 0 0 1 0-163.835605 33.789033 33.789033 0 0 0 16.482455-7.526987A33.514326 33.514326 0 0 0 1098.830347 34.283507a34.008799 34.008799 0 0 0-32.964911-34.063741h-2.52731c-3.900848 0-7.856637 0.494474-11.757484 0.879064a101.586866 101.586866 0 0 0-14.11997-1.09883H102.081339A102.081339 102.081339 0 0 0 0 102.301105v94.554352a102.081339 102.081339 0 0 0 102.081339 102.081339h72.742569V128.233501a40.272132 40.272132 0 0 1 42.250027-38.01953H412.06138a40.272132 40.272132 0 0 1 42.195085 38.01953v170.648353h582.380084a96.752012 96.752012 0 0 0 14.394678-1.153772c-1.428479 0-2.692134-0.71424-4.065673-0.934005 3.131666 0.384591 6.263333 0.879064 9.449941 1.09883a34.008799 34.008799 0 0 0 41.920378-32.96491 33.569267 33.569267 0 0 0-12.087134-25.822514h0.329649zM0 464.750295v94.609293a102.081339 102.081339 0 0 0 102.081339 102.081339h72.742569V362.83378H102.081339A102.081339 102.081339 0 0 0 0 464.805237z m1087.072862 136.85932h-0.384591a33.459384 33.459384 0 0 0-16.482455-7.636871 144.386308 144.386308 0 0 1 0-163.835605 33.953858 33.953858 0 0 0 16.482455-7.472046 33.624209 33.624209 0 0 0 12.087134-25.767572 34.008799 34.008799 0 0 0-32.96491-33.953858h-2.52731q-6.043567 0-12.087134 0.769182a100.268269 100.268269 0 0 0-13.900204-1.043889H454.915763v298.71703h582.380084a96.752012 96.752012 0 0 0 14.394678-1.153772c-1.593304 0-2.966842-0.769181-4.450263-1.043889 3.24155 0.384591 6.538041 0.879064 9.834531 1.09883a33.843975 33.843975 0 0 0 29.943127-58.732482z m0 362.614014h-0.384591a33.67915 33.67915 0 0 0-16.482455-7.526988 144.386308 144.386308 0 0 1 0-163.835604 34.063741 34.063741 0 0 0 16.482455-7.472047h0.494474-0.439532a33.624209 33.624209 0 0 0 12.087134-25.767571 34.008799 34.008799 0 0 0-32.964911-33.898917h-2.52731q-6.043567 0-12.087133 0.769182a102.081339 102.081339 0 0 0-13.900204-1.043889h-582.380084v224.655864l-139.77122-139.77122-139.936045 139.77122V725.447795H102.081339A102.081339 102.081339 0 0 0 0 827.309368v94.554351a102.081339 102.081339 0 0 0 102.081339 102.081339h935.104625a108.564438 108.564438 0 0 0 14.394678-1.153771c-1.593304 0-2.966842-0.769181-4.450263-1.098831 3.24155 0.494474 6.538041 0.934006 9.834531 1.153772a34.008799 34.008799 0 0 0 41.920378-32.96491 33.624209 33.624209 0 0 0-12.032192-25.767572z" p-id="3244"></path></svg>